Coordinates
version=1
nRows=7
nColumns=33
inDegrees=yes

Units are S.I. units (second, meters, Newtons, ...)
Angles are in degrees.

endheader
time	ground_thorax_rot_x	ground_thorax_rot_y	ground_thorax_rot_z	ground_thorax_tx	ground_thorax_ty	ground_thorax_tz	clav_prot_r	clav_elev_r	scapula_abduction_r	scapula_elevation_r	scapula_upward_rot_r	scapula_winging_r	shoulder_elv_r	plane_of_elev_r	axial_rot_r	elbow_flexion_r	pro_sup_r	wrist_flex_r	wrist_dev_r	clav_prot_l	clav_elev_l	scapula_abduction_l	scapula_elevation_l	scapula_upward_rot_l	scapula_winging_l	shoulder_elv_l	plane_of_elev_l	axial_rot_l	elbow_flexion_l	pro_sup_l	wrist_flex_l	wrist_dev_l
      5.23000000	     25.02605818	     33.20465718	     48.41718571	     48.35319167	    762.07526318	    -32.86553469	     12.47831245	     35.86137543	     25.63127893	     45.00000000	    -45.00000000	  -2956.60447553	  -4969.85857968	     21.85008001	    179.99999979	   1085.18424976	    180.76348407	     11.42819882	     13.17905505	    -15.25193642	    -45.00000000	    -32.42727191	     45.00000000	    -45.00000000	   -982.57379834	  -1175.75674339	    137.19465596	   -135.60822659	   1789.30504513	     41.10449258	     12.56480190	    -12.84877176
      5.24000000	     25.11199886	     33.18062707	     48.17669503	     47.77766070	    761.78518550	    -32.72840783	     12.10553475	     35.77272702	     25.59613675	     45.00000000	    -45.00000000	  -2956.63675136	  -4969.84394460	     21.91659669	    179.99999979	   1085.33836385	    180.72083829	     11.60189481	     13.22521803	    -14.98823720	    -45.00000000	    -32.45068977	     45.00000000	    -45.00000000	   -982.44542116	  -1175.72271400	    137.07117525	   -135.68356286	   1789.16069618	     40.90112161	     12.48612835	    -13.07968099
      5.25000000	     25.17178054	     33.18923657	     47.97740210	     47.07590204	    761.55068881	    -32.59308191	     12.41700045	     35.82933484	     25.48062757	     45.00000000	    -45.00000000	  -2956.69588339	  -4969.77553363	     22.00148607	    179.99999979	   1085.29368084	    180.59569126	     11.49359966	     13.21853002	    -15.12573718	    -45.00000000	    -32.48598233	     45.00000000	    -45.00000000	   -982.48157045	  -1175.68389242	    137.16121501	   -135.72021983	   1789.18554940	     40.65073688	     12.67661401	    -12.83620349
      5.26000000	     25.33802011	     33.07593880	     47.66584722	     46.25405345	    761.36475384	    -32.45866271	     12.19724793	     35.70237896	     25.68440233	     45.00000000	    -45.00000000	  -2956.80079701	  -4969.85909100	     21.95113699	    179.99999979	   1085.36731159	    180.36842045	     11.78240828	     13.30212426	    -14.94683506	    -45.00000000	    -32.45521610	     45.00000000	    -45.00000000	   -982.31671833	  -1175.61622714	    136.99376150	   -135.78280070	   1788.94638287	     40.28410451	     12.51002227	    -13.16562239
      5.27000000	     25.24070226	     33.20535855	     47.62730962	     45.31290090	    761.22029053	    -32.32342388	     12.49025995	     35.85161486	     25.40878433	     45.00000000	    -45.00000000	  -2956.83756941	  -4969.74476359	     22.00700913	    179.99999979	   1085.34387020	    180.18687077	     11.43697415	     13.26152453	    -15.10812378	    -45.00000000	    -32.62425810	     45.00000000	    -45.00000000	   -982.42314934	  -1175.60092172	    137.25575667	   -135.72499786	   1789.11585469	     39.98358786	     12.79097363	    -12.69542557
      5.28000000	     25.33766435	     33.17298535	     47.39943714	     44.25573306	    761.11196791	    -32.18638066	     12.43344053	     35.72599548	     25.52962334	     45.00000000	    -45.00000000	  -2956.92177101	  -4969.74361479	     21.90759717	    179.99999979	   1085.36366974	    179.91744756	     11.64583427	     13.28970371	    -14.93154393	    -45.00000000	    -32.66577849	     45.00000000	    -45.00000000	   -982.29292548	  -1175.56080038	    137.22368301	   -135.75857404	   1788.98323025	     39.54407188	     12.61290092	    -12.95148976
      5.29000000	     25.47323094	     33.09985798	     47.12530588	     43.08721833	    761.03587957	    -32.04502248	     12.39379365	     35.73641967	     25.65858110	     45.00000000	    -45.00000000	  -2957.04799676	  -4969.76471190	     21.93966774	    179.99999979	   1085.44871235	    179.73173063	     11.68084988	     13.35432496	    -14.90870602	    -45.00000000	    -32.65126686	     45.00000000	    -45.00000000	   -982.14574890	  -1175.50461711	    137.14257445	   -135.74017592	   1788.91195338	     39.23589938	     12.69191261	    -12.93391235
